HIERARCHY
ROOT newVegas:Hips
{
	OFFSET 0.000000 96.479958 0.000000
	CHANNELS 6 Xposition Yposition Zposition Xrotation Yrotation Zrotation
	JOINT newVegas:Pelvis
	{
		OFFSET 0.000000 0.000000 0.000000
		CHANNELS 3 Xrotation Yrotation Zrotation
		JOINT newVegas:LeftUpLeg
		{
			OFFSET 18.735201 -5.666702 -4.541200
			CHANNELS 3 Xrotation Yrotation Zrotation
			JOINT newVegas:LeftLeg
			{
				OFFSET -0.021200 -31.938179 0.493100
				CHANNELS 3 Xrotation Yrotation Zrotation
				JOINT newVegas:LeftFoot
				{
					OFFSET 0.021200 -31.938179 -4.336299
					CHANNELS 3 Xrotation Yrotation Zrotation
					JOINT newVegas:LeftToeBase
					{
						OFFSET 0.943001 -26.722000 15.023500
						CHANNELS 3 Xrotation Yrotation Zrotation
						End Site
						{
							OFFSET 0.000000 30.670183 0.000000
						}
					}
				}
				JOINT newVegas:Left_PantLeg
				{
					OFFSET 0.663870 -9.044666 -1.108900
					CHANNELS 3 Xrotation Yrotation Zrotation
					End Site
					{
						OFFSET 1.415995 20.635357 0.000000
					}
				}
			}
		}
		JOINT newVegas:RightUpLeg
		{
			OFFSET -18.735201 -5.666702 -4.541200
			CHANNELS 3 Xrotation Yrotation Zrotation
			JOINT newVegas:RightLeg
			{
				OFFSET 0.018946 -31.938133 0.493100
				CHANNELS 3 Xrotation Yrotation Zrotation
				JOINT newVegas:RightFoot
				{
					OFFSET -0.018946 -31.938126 -4.336299
					CHANNELS 3 Xrotation Yrotation Zrotation
					JOINT newVegas:RightToeBase
					{
						OFFSET -0.943001 -26.722004 15.023500
						CHANNELS 3 Xrotation Yrotation Zrotation
						End Site
						{
							OFFSET 0.000000 30.670187 0.000000
						}
					}
				}
				JOINT newVegas:Right_PantLeg
				{
					OFFSET -0.661674 -9.044716 -1.108900
					CHANNELS 3 Xrotation Yrotation Zrotation
					End Site
					{
						OFFSET -1.415958 20.635269 0.000000
					}
				}
			}
		}
	}
	JOINT newVegas:Spine
	{
		OFFSET 0.000000 10.199997 -0.299500
		CHANNELS 3 Xrotation Yrotation Zrotation
		JOINT newVegas:Spine1
		{
			OFFSET 0.000000 11.900002 -1.516600
			CHANNELS 3 Xrotation Yrotation Zrotation
			JOINT newVegas:Spine2
			{
				OFFSET 0.000000 13.600006 -2.842500
				CHANNELS 3 Xrotation Yrotation Zrotation
				JOINT newVegas:Neck
				{
					OFFSET 0.000000 9.624100 -2.890100
					CHANNELS 3 Xrotation Yrotation Zrotation
					JOINT newVegas:Head
					{
						OFFSET 0.000000 14.068802 -1.351900
						CHANNELS 3 Xrotation Yrotation Zrotation
						JOINT newVegas:Hair_Back
						{
							OFFSET 0.000000 3.231903 -17.524799
							CHANNELS 3 Xrotation Yrotation Zrotation
							End Site
							{
								OFFSET 0.000000 19.849884 0.000000
							}
						}
						JOINT newVegas:Hair_Front
						{
							OFFSET 0.000000 31.260406 4.573800
							CHANNELS 3 Xrotation Yrotation Zrotation
							JOINT newVegas:Hair_Front1
							{
								OFFSET 0.000000 2.284103 11.993300
								CHANNELS 3 Xrotation Yrotation Zrotation
								JOINT newVegas:Hair_Front2
								{
									OFFSET 0.000000 2.284103 11.993300
									CHANNELS 3 Xrotation Yrotation Zrotation
									End Site
									{
										OFFSET 0.000000 12.208862 0.000000
									}
								}
							}
						}
						JOINT newVegas:Jowel
						{
							OFFSET 0.000000 -7.458206 6.864100
							CHANNELS 3 Xrotation Yrotation Zrotation
							End Site
							{
								OFFSET 0.000000 19.849884 0.000000
							}
						}
					}
				}
				JOINT newVegas:LeftShoulder
				{
					OFFSET 15.263000 10.923401 -0.547700
					CHANNELS 3 Xrotation Yrotation Zrotation
					JOINT newVegas:LeftArm
					{
						OFFSET 25.438599 -2.830597 -13.032500
						CHANNELS 3 Xrotation Yrotation Zrotation
						JOINT newVegas:LeftForeArm
						{
							OFFSET 29.960503 0.000000 0.000000
							CHANNELS 3 Xrotation Yrotation Zrotation
							JOINT newVegas:LeftHand
							{
								OFFSET 27.849251 0.000000 0.000000
								CHANNELS 3 Xrotation Yrotation Zrotation
								JOINT newVegas:LeftHandThumb1
								{
									OFFSET 4.487587 -3.305161 6.305391
									CHANNELS 3 Xrotation Yrotation Zrotation
									JOINT newVegas:LeftHandThumb2
									{
										OFFSET 5.480453 -3.164139 3.164143
										CHANNELS 3 Xrotation Yrotation Zrotation
										JOINT newVegas:LeftHandThumb3
										{
											OFFSET 5.159721 -2.978973 2.978967
											CHANNELS 3 Xrotation Yrotation Zrotation
											End Site
											{
												OFFSET 2.494507 5.926697 1.738678
											}
										}
									}
								}
								JOINT newVegas:LeftHandIndex1
								{
									OFFSET 18.578728 -0.527832 5.208049
									CHANNELS 3 Xrotation Yrotation Zrotation
									JOINT newVegas:LeftHandIndex2
									{
										OFFSET 3.192009 0.000000 0.000000
										CHANNELS 3 Xrotation Yrotation Zrotation
										JOINT newVegas:LeftHandIndex3
										{
											OFFSET 3.835129 0.000000 0.000000
											CHANNELS 3 Xrotation Yrotation Zrotation
											End Site
											{
												OFFSET -0.034599 3.816971 0.371180
											}
										}
									}
								}
								JOINT newVegas:LeftHandMiddle1
								{
									OFFSET 18.476105 0.000000 0.000000
									CHANNELS 3 Xrotation Yrotation Zrotation
									JOINT newVegas:LeftHandMiddle2
									{
										OFFSET 3.324875 0.000000 0.000000
										CHANNELS 3 Xrotation Yrotation Zrotation
										JOINT newVegas:LeftHandMiddle3
										{
											OFFSET 4.596550 0.000000 0.000000
											CHANNELS 3 Xrotation Yrotation Zrotation
											End Site
											{
												OFFSET 0.057701 4.578827 0.399218
											}
										}
									}
								}
								JOINT newVegas:LeftHandRing1
								{
									OFFSET 17.732719 0.121887 -4.201567
									CHANNELS 3 Xrotation Yrotation Zrotation
									JOINT newVegas:LeftHandRing2
									{
										OFFSET 2.733170 0.000000 0.000000
										CHANNELS 3 Xrotation Yrotation Zrotation
										JOINT newVegas:LeftHandRing3
										{
											OFFSET 3.178268 0.000000 0.000000
											CHANNELS 3 Xrotation Yrotation Zrotation
											End Site
											{
												OFFSET 0.119102 3.170624 0.185394
											}
										}
									}
								}
								JOINT newVegas:LeftHandPinky1
								{
									OFFSET 15.989624 -0.606689 -7.535461
									CHANNELS 3 Xrotation Yrotation Zrotation
									JOINT newVegas:LeftHandPinky2
									{
										OFFSET 2.538986 0.000000 0.000000
										CHANNELS 3 Xrotation Yrotation Zrotation
										JOINT newVegas:LeftHandPinky3
										{
											OFFSET 2.593102 0.000000 0.000000
											CHANNELS 3 Xrotation Yrotation Zrotation
											End Site
											{
												OFFSET -0.150902 2.584198 0.152708
											}
										}
									}
								}
							}
							JOINT newVegas:Left_Sleeve
							{
								OFFSET 0.267448 -0.649796 0.577675
								CHANNELS 3 Xrotation Yrotation Zrotation
								End Site
								{
									OFFSET 0.000000 15.991241 0.000000
								}
							}
							JOINT newVegas:Left_CapeC
							{
								OFFSET 15.715958 -8.608795 -6.935905
								CHANNELS 3 Xrotation Yrotation Zrotation
								JOINT newVegas:Left_CapeC1
								{
									OFFSET 0.000000 -8.688499 0.000000
									CHANNELS 3 Xrotation Yrotation Zrotation
									End Site
									{
										OFFSET 0.000000 8.688499 0.000000
									}
								}
							}
						}
						JOINT newVegas:Left_CapeB
						{
							OFFSET 26.118385 -8.608795 -7.079235
							CHANNELS 3 Xrotation Yrotation Zrotation
							JOINT newVegas:Left_CapeB1
							{
								OFFSET 0.000000 -8.688499 0.000000
								CHANNELS 3 Xrotation Yrotation Zrotation
								End Site
								{
									OFFSET 0.000000 8.688499 0.000000
								}
							}
						}
						JOINT newVegas:Left_CapeA
						{
							OFFSET 5.115639 -8.608795 -10.395809
							CHANNELS 3 Xrotation Yrotation Zrotation
							JOINT newVegas:Left_CapeA1
							{
								OFFSET 0.000000 -8.688499 0.000000
								CHANNELS 3 Xrotation Yrotation Zrotation
								End Site
								{
									OFFSET 0.000000 8.688499 0.000000
								}
							}
						}
					}
				}
				JOINT newVegas:RightShoulder
				{
					OFFSET -15.263000 10.923401 -0.547700
					CHANNELS 3 Xrotation Yrotation Zrotation
					JOINT newVegas:RightArm
					{
						OFFSET -25.438599 -2.830597 -13.032500
						CHANNELS 3 Xrotation Yrotation Zrotation
						JOINT newVegas:RightForeArm
						{
							OFFSET -29.960503 0.000000 0.000000
							CHANNELS 3 Xrotation Yrotation Zrotation
							JOINT newVegas:RightHand
							{
								OFFSET -27.849251 0.000000 0.000000
								CHANNELS 3 Xrotation Yrotation Zrotation
								JOINT newVegas:RightHandThumb1
								{
									OFFSET -4.487587 -3.305161 6.305391
									CHANNELS 3 Xrotation Yrotation Zrotation
									JOINT newVegas:RightHandThumb2
									{
										OFFSET -5.480453 -3.164139 3.164143
										CHANNELS 3 Xrotation Yrotation Zrotation
										JOINT newVegas:RightHandThumb3
										{
											OFFSET -5.159721 -2.978973 2.978967
											CHANNELS 3 Xrotation Yrotation Zrotation
											End Site
											{
												OFFSET -2.494507 5.926697 1.738678
											}
										}
									}
								}
								JOINT newVegas:RightHandIndex1
								{
									OFFSET -18.578728 -0.527832 5.208049
									CHANNELS 3 Xrotation Yrotation Zrotation
									JOINT newVegas:RightHandIndex2
									{
										OFFSET -3.192009 0.000000 0.000000
										CHANNELS 3 Xrotation Yrotation Zrotation
										JOINT newVegas:RightHandIndex3
										{
											OFFSET -3.835129 0.000000 0.000000
											CHANNELS 3 Xrotation Yrotation Zrotation
											End Site
											{
												OFFSET 0.034599 3.816971 0.371180
											}
										}
									}
								}
								JOINT newVegas:RightHandMiddle1
								{
									OFFSET -18.476105 0.000000 0.000000
									CHANNELS 3 Xrotation Yrotation Zrotation
									JOINT newVegas:RightHandMiddle2
									{
										OFFSET -3.324875 0.000000 0.000000
										CHANNELS 3 Xrotation Yrotation Zrotation
										JOINT newVegas:RightHandMiddle3
										{
											OFFSET -4.596550 0.000000 0.000000
											CHANNELS 3 Xrotation Yrotation Zrotation
											End Site
											{
												OFFSET -0.057701 4.578827 0.399218
											}
										}
									}
								}
								JOINT newVegas:RightHandRing1
								{
									OFFSET -17.732719 0.121887 -4.201567
									CHANNELS 3 Xrotation Yrotation Zrotation
									JOINT newVegas:RightHandRing2
									{
										OFFSET -2.733170 0.000000 0.000000
										CHANNELS 3 Xrotation Yrotation Zrotation
										JOINT newVegas:RightHandRing3
										{
											OFFSET -3.178268 0.000000 0.000000
											CHANNELS 3 Xrotation Yrotation Zrotation
											End Site
											{
												OFFSET -0.119102 3.170624 0.185394
											}
										}
									}
								}
								JOINT newVegas:RightHandPinky1
								{
									OFFSET -15.989624 -0.606689 -7.535461
									CHANNELS 3 Xrotation Yrotation Zrotation
									JOINT newVegas:RightHandPinky2
									{
										OFFSET -2.538986 0.000000 0.000000
										CHANNELS 3 Xrotation Yrotation Zrotation
										JOINT newVegas:RightHandPinky3
										{
											OFFSET -2.593102 0.000000 0.000000
											CHANNELS 3 Xrotation Yrotation Zrotation
											End Site
											{
												OFFSET 0.150902 2.584198 0.152708
											}
										}
									}
								}
							}
							JOINT newVegas:Right_CapeC
							{
								OFFSET -15.715958 -8.608795 -6.935905
								CHANNELS 3 Xrotation Yrotation Zrotation
								JOINT newVegas:Right_CapeC1
								{
									OFFSET 0.000000 -8.688499 0.000000
									CHANNELS 3 Xrotation Yrotation Zrotation
									End Site
									{
										OFFSET 0.000000 8.688499 0.000000
									}
								}
							}
							JOINT newVegas:Right_Sleeve
							{
								OFFSET -0.267448 -0.649994 0.577675
								CHANNELS 3 Xrotation Yrotation Zrotation
								End Site
								{
									OFFSET 0.000000 15.991302 0.000000
								}
							}
						}
						JOINT newVegas:Right_CapeA
						{
							OFFSET -5.115540 -8.608795 -10.395824
							CHANNELS 3 Xrotation Yrotation Zrotation
							JOINT newVegas:Right_CapeA1
							{
								OFFSET 0.000000 -8.688499 0.000000
								CHANNELS 3 Xrotation Yrotation Zrotation
								End Site
								{
									OFFSET 0.000000 8.688499 0.000000
								}
							}
						}
						JOINT newVegas:Right_CapeB
						{
							OFFSET -26.118187 -8.608795 -7.079266
							CHANNELS 3 Xrotation Yrotation Zrotation
							JOINT newVegas:Right_CapeB1
							{
								OFFSET 0.000000 -8.688499 0.000000
								CHANNELS 3 Xrotation Yrotation Zrotation
								End Site
								{
									OFFSET 0.000000 8.688499 0.000000
								}
							}
						}
					}
				}
				JOINT newVegas:Left_Collar
				{
					OFFSET 18.625099 8.655502 8.828100
					CHANNELS 3 Xrotation Yrotation Zrotation
					JOINT newVegas:Left_Collar1
					{
						OFFSET 14.783401 10.540405 -1.259500
						CHANNELS 3 Xrotation Yrotation Zrotation
						End Site
						{
							OFFSET 0.000000 18.199875 0.000000
						}
					}
				}
				JOINT newVegas:Collar_Back
				{
					OFFSET 0.000000 15.630707 -20.132601
					CHANNELS 3 Xrotation Yrotation Zrotation
					End Site
					{
						OFFSET 0.000000 22.523010 0.000000
					}
				}
				JOINT newVegas:Left_Peck
				{
					OFFSET 17.239599 -5.132599 25.482599
					CHANNELS 3 Xrotation Yrotation Zrotation
					End Site
					{
						OFFSET 0.000000 22.523010 0.000000
					}
				}
				JOINT newVegas:Right_Peck
				{
					OFFSET -17.239599 -5.132202 25.482599
					CHANNELS 3 Xrotation Yrotation Zrotation
					End Site
					{
						OFFSET 0.000000 22.523010 0.000000
					}
				}
				JOINT newVegas:Right_Collar
				{
					OFFSET -18.625099 8.655792 8.828100
					CHANNELS 3 Xrotation Yrotation Zrotation
					JOINT newVegas:Right_Collar1
					{
						OFFSET -14.783401 10.539993 -1.259500
						CHANNELS 3 Xrotation Yrotation Zrotation
						End Site
						{
							OFFSET 0.000000 18.199631 0.000000
						}
					}
				}
			}
		}
		JOINT newVegas:Belly
		{
			OFFSET 0.000000 -6.540398 9.014299
			CHANNELS 3 Xrotation Yrotation Zrotation
			End Site
			{
				OFFSET 0.000000 11.566666 0.000000
			}
		}
	}
	JOINT newVegas:ElvisFacialAnim_Joint
	{
		OFFSET 1.000000 -95.330101 -8.825800
		CHANNELS 3 Xrotation Yrotation Zrotation
		End Site
		{
			OFFSET 0.000000 35.315800 0.000000
		}
	}
}
MOTION
Frames: 4
Frame Time: 0.033333
7.143944 76.740234 117.751076 6.466092 -21.338266 -4.294812 0.000000 0.000000 0.000000 -11.809184 27.014044 20.761625 63.620473 -1.629648 -2.415929 30.031239 -17.678760 2.236119 0.000000 0.000000 0.000000 -0.000001 -0.000001 0.000002 -69.249983 5.351738 21.745569 65.738317 -6.072795 1.829768 -4.713585 -10.394237 -1.285033 0.000000 -0.000000 0.000000 0.000000 -0.000001 -0.000000 7.557641 -1.196580 2.556724 15.094472 -1.659744 2.904287 15.094472 -1.659747 2.904287 -2.761865 1.026221 -1.373360 -2.761867 1.026215 -1.373364 0.000001 -0.000001 0.000000 -2.761799 1.026243 -1.373370 -2.761933 1.026190 -1.373356 -0.000002 -0.000001 0.000001 0.000001 -0.000001 -0.000000 -22.123041 -37.190670 6.942246 -51.584717 -11.756422 -31.247286 -31.269111 -62.925850 -22.976435 -104.608261 -7.356220 22.369023 5.416792 4.934951 -6.362349 0.993307 4.384336 2.140556 -0.000000 0.000001 -0.000001 5.789417 6.728926 -31.303358 -15.217714 -5.344528 -83.532790 -0.000000 0.000001 0.000000 -0.751002 -0.171770 -61.553931 -7.141288 -6.530215 -61.671281 -0.000003 -0.000001 -0.000005 -7.069875 5.031879 -71.482540 -0.222080 -4.847604 -59.751424 -0.000000 0.000001 0.000000 -18.360447 1.895135 -83.677788 2.557911 -7.921867 -57.480031 -0.000000 -0.000005 -0.000000 -0.000003 -0.000003 -0.000001 -0.000003 -0.000003 -0.000001 -0.000003 -0.000002 -0.000001 -0.000003 -0.000001 -0.000001 -0.000004 0.000000 -0.000001 -0.000003 -0.000001 -0.000001 -0.000005 -0.000001 -0.000001 -8.955960 15.835940 -14.334248 -43.290408 20.466377 72.674196 -2.607103 112.784503 -3.249027 -18.864994 -17.575940 -8.666766 15.373240 -2.027219 15.307342 11.251328 4.538846 -20.175735 0.000001 -0.000001 -0.000002 1.545452 -1.048682 4.426026 -1.791689 -0.061399 21.718752 -0.000000 0.000001 0.000000 2.845826 5.693344 48.828315 -9.814265 -1.216808 109.677491 -0.000000 0.000000 0.000000 -9.046842 -4.963276 55.876661 -4.882950 8.758142 96.242720 0.000005 0.000001 -0.000002 -13.055880 0.586301 71.485429 -3.733299 13.979613 79.665954 0.000000 -0.000000 -0.000000 -0.000000 0.000004 -0.000002 0.000000 0.000002 -0.000000 -0.000000 0.000004 -0.000001 -0.000001 0.000000 0.000000 -0.000001 0.000001 0.000000 -0.000001 0.000000 0.000000 -0.000001 0.000001 -0.000000 0.000001 -0.000001 0.000001 0.000001 -0.000001 0.000001 0.000001 -0.000001 0.000001 0.000001 -0.000001 0.000001 0.000001 -0.000001 0.000001 0.000001 -0.000001 0.000001 0.000001 -0.000001 0.000001 -0.000000 0.000002 -0.000000 0.000000 0.000000 0.000000 
6.552403 77.406807 125.950165 6.127910 -22.267284 -4.297741 0.000000 0.000001 -0.000000 -23.590519 22.924775 26.689302 82.916004 -2.794021 -2.923826 12.509920 -20.335285 3.678970 -0.000000 -0.000000 0.000000 -0.000000 -0.000001 0.000000 -63.247162 7.111954 21.446712 71.520379 -5.797654 2.013803 -16.411913 -9.893607 -0.234634 -0.000000 0.000000 -0.000000 -0.000000 0.000001 -0.000000 7.753765 -0.591793 2.135218 15.504712 -0.812921 2.922082 15.504719 -0.812926 2.922085 -2.722551 0.921801 -1.407839 -2.722575 0.921804 -1.407836 0.000000 0.000001 -0.000000 -2.722561 0.921785 -1.407831 -2.722420 0.921813 -1.407839 0.000001 -0.000002 0.000001 0.000000 0.000001 -0.000001 -20.545301 -38.869831 7.966611 -56.429288 -12.232507 -30.686903 -26.753866 -60.153654 -19.427433 -105.268248 -5.169497 22.276513 6.216146 3.910391 -6.851101 1.010518 4.378831 2.124611 -0.000002 0.000002 0.000001 5.002519 6.463744 -30.048840 -15.423573 -4.716109 -85.723525 -0.000001 -0.000002 0.000004 -1.377648 0.149312 -60.720450 -7.492612 -6.213483 -62.716682 -0.000002 -0.000002 -0.000003 -7.375673 4.463956 -69.937606 -0.873279 -4.893467 -61.061311 -0.000001 -0.000002 -0.000002 -18.534574 1.045880 -81.867733 2.446122 -8.116672 -58.706009 -0.000002 -0.000003 0.000001 0.000000 0.000001 -0.000002 0.000000 0.000001 -0.000002 -0.000000 0.000001 -0.000002 0.000000 -0.000001 -0.000002 -0.000001 -0.000001 -0.000003 0.000000 -0.000001 -0.000002 -0.000002 -0.000002 -0.000002 -7.572253 15.886067 -14.741662 -47.065901 18.641593 73.068606 -2.789543 113.525455 -3.089502 -18.414094 -21.168920 -8.835667 16.176777 -1.431574 13.958351 11.119831 4.942948 -20.031041 -0.000005 -0.000002 -0.000001 1.331354 -1.035306 4.180013 -1.788772 -0.031588 21.290048 -0.000000 0.000001 -0.000000 2.284685 5.538099 48.986701 -10.142332 -1.123559 108.919155 -0.000000 -0.000001 0.000000 -9.490574 -4.839481 56.595371 -4.998636 8.769444 95.832595 0.000001 0.000002 -0.000002 -13.535437 0.610428 72.612185 -3.918232 13.919318 79.598225 -0.000001 -0.000000 0.000000 0.000001 -0.000002 0.000000 0.000001 -0.000006 -0.000000 0.000001 -0.000002 0.000000 0.000001 -0.000003 -0.000000 0.000001 -0.000002 -0.000000 0.000001 -0.000003 -0.000000 0.000001 -0.000002 -0.000001 0.000001 -0.000001 -0.000000 0.000001 -0.000001 -0.000000 0.000001 -0.000001 -0.000000 0.000001 -0.000001 -0.000000 0.000001 -0.000001 -0.000000 0.000001 -0.000001 -0.000000 0.000001 -0.000001 -0.000000 -0.000001 0.000000 -0.000000 0.000000 0.000001 -0.000000 
6.305761 77.058556 133.399033 5.787061 -22.890547 -4.580630 -0.000001 -0.000001 -0.000000 -39.767455 15.949207 31.687983 96.983181 -3.693469 -3.208395 11.931169 -17.588688 5.900102 0.000001 -0.000000 -0.000000 -0.000002 0.000001 -0.000002 -56.558013 7.827374 19.361751 76.505844 -5.638822 2.136786 -27.931265 -7.538271 1.184475 0.000000 -0.000001 0.000000 -0.000001 -0.000000 -0.000001 7.779334 -0.089369 2.095094 15.556593 -0.055266 2.745551 15.556611 -0.055267 2.745555 -2.647242 0.820193 -1.445765 -2.647239 0.820196 -1.445778 0.000001 0.000001 0.000000 -2.647306 0.820169 -1.445764 -2.647264 0.820217 -1.445774 -0.000001 0.000000 -0.000000 0.000001 0.000001 0.000000 -18.923521 -40.406993 9.081106 -60.836030 -12.691512 -30.239652 -21.327524 -55.639230 -16.031963 -106.566264 -3.074327 20.740202 6.888019 2.809175 -7.243496 1.033961 4.371274 2.103034 0.000000 -0.000000 -0.000003 4.307661 6.180158 -28.917990 -15.590112 -4.140272 -87.714348 -0.000001 -0.000000 0.000001 -1.960243 0.413249 -59.964505 -7.797241 -5.911676 -63.667602 -0.000002 -0.000001 -0.000002 -7.613186 3.918636 -68.535122 -1.464309 -4.897253 -62.257618 0.000001 -0.000003 0.000003 -18.637566 0.234326 -80.227764 2.340328 -8.291510 -59.822588 -0.000000 -0.000005 0.000001 -0.000001 0.000002 0.000002 -0.000001 0.000002 0.000002 -0.000001 0.000003 0.000002 0.000002 -0.000003 0.000001 0.000002 -0.000003 0.000000 0.000002 -0.000003 0.000001 0.000001 -0.000003 0.000001 -6.195168 15.955868 -15.143033 -50.128558 17.306014 73.240952 -2.664672 113.025697 -3.144011 -18.365725 -23.570749 -9.461923 16.927861 -0.948844 12.720613 11.001724 5.311416 -19.899478 -0.000001 -0.000003 0.000001 1.136748 -1.020538 3.956491 -1.785831 -0.004461 20.899928 0.000000 0.000001 0.000001 1.774802 5.392627 49.134486 -10.439700 -1.026281 108.230167 0.000000 0.000000 0.000003 -9.900528 -4.742264 57.249922 -5.103522 8.782960 95.459018 -0.000000 0.000001 -0.000001 -13.977764 0.616500 73.635204 -4.086672 13.865229 79.536474 -0.000005 0.000003 -0.000002 -0.000002 0.000005 0.000001 -0.000002 0.000001 0.000001 -0.000002 0.000005 -0.000000 0.000000 0.000003 -0.000001 0.000000 0.000003 -0.000001 0.000000 0.000003 -0.000001 0.000000 0.000003 -0.000001 0.000001 -0.000000 0.000001 0.000001 -0.000000 0.000001 0.000001 -0.000000 0.000001 0.000001 -0.000000 0.000001 0.000001 -0.000000 0.000001 0.000001 -0.000000 0.000001 0.000001 -0.000000 0.000001 -0.000000 -0.000001 -0.000000 -0.000001 -0.000001 -0.000000 
6.303179 76.259628 140.987335 5.542322 -23.595575 -4.735935 0.000000 0.000000 -0.000000 -56.860690 8.472156 33.542420 102.571321 -4.555746 -3.336659 19.486776 -10.975047 5.325101 -0.000003 0.000000 -0.000000 -0.000000 0.000000 -0.000000 -49.431380 8.310904 15.976926 79.964986 -5.344781 2.223134 -36.775480 -4.425276 2.643202 -0.000000 0.000000 0.000000 -0.000000 0.000000 -0.000001 7.686271 0.371824 2.211243 15.377935 0.604241 2.245647 15.377932 0.604250 2.245640 -2.563477 0.720870 -1.487735 -2.563498 0.720873 -1.487742 0.000003 -0.000001 0.000000 -2.563485 0.720885 -1.487742 -2.563495 0.720871 -1.487738 0.000001 -0.000001 0.000000 0.000003 -0.000001 -0.000000 -17.266259 -41.878338 10.232343 -64.519251 -13.303238 -29.801126 -16.232762 -50.213372 -13.275264 -108.012010 -1.034074 18.405000 7.424578 1.694897 -7.532525 1.063391 4.361810 2.075801 -0.000001 0.000001 -0.000001 3.721952 5.895996 -27.941769 -15.719708 -3.636384 -89.449182 0.000000 -0.000001 0.000002 -2.478703 0.617937 -59.308302 -8.049374 -5.636971 -64.497012 -0.000003 -0.000004 0.000000 -7.782941 3.418873 -67.313932 -1.976831 -4.866962 -63.304802 -0.000001 -0.000003 0.000004 -18.676442 -0.506529 -78.802344 2.244769 -8.441959 -60.797276 0.000002 -0.000008 -0.000003 -0.000001 0.000000 0.000003 -0.000001 0.000000 0.000003 -0.000002 0.000001 0.000003 0.000002 0.000001 -0.000001 0.000002 0.000000 -0.000000 0.000002 0.000001 -0.000001 0.000000 0.000000 -0.000001 -4.829562 16.045001 -15.538713 -52.333442 16.361887 73.098146 -2.350491 111.803291 -3.360527 -18.738411 -24.676082 -10.444626 17.598889 -0.581144 11.633495 10.900297 5.633512 -19.784937 -0.000003 -0.000002 -0.000001 0.967240 -1.005378 3.761900 -1.783017 0.019229 20.559672 -0.000000 0.000001 0.000001 1.330748 5.261920 49.267107 -10.697923 -0.930380 107.630189 -0.000000 0.000000 0.000002 -10.263384 -4.671326 57.821185 -5.194627 8.797663 95.132965 0.000001 0.000002 0.000002 -14.368476 0.607866 74.525417 -4.233756 13.818747 79.482481 -0.000001 0.000002 0.000000 -0.000002 0.000002 -0.000001 -0.000002 0.000001 -0.000001 -0.000003 0.000002 -0.000001 -0.000000 0.000002 -0.000002 -0.000000 0.000003 -0.000001 -0.000000 0.000002 -0.000002 -0.000000 0.000003 -0.000001 0.000002 -0.000001 -0.000001 0.000002 -0.000001 -0.000001 0.000002 -0.000001 -0.000001 0.000002 -0.000001 -0.000001 0.000002 -0.000001 -0.000001 0.000002 -0.000001 -0.000001 0.000002 -0.000001 -0.000001 -0.000000 -0.000001 -0.000000 0.000000 0.000000 -0.000000 
